:SAMPLES-PER-SECOND 30
:FULLY-SPECIFIED
:DEGREES
41
root  -5.63691 38.0697 1.19052 133.111 -84.4502 -138.139
RightUpLeg  -24.1919 -15.6133 6.04713
RightLeg  29.0632 -3.94178 -2.60606
RightFoot  -0.973837 0.462812 -5.16274
RightToes  5.82063e-011 0 -3.6325e-017
Spine  21.085 -3.29844 9.78439
Spine1  9.10674 -1.75062 0.456727
HEad  -0.415458 4.37108 -5.922
LeftShoulder1  6.7218 -11.1501 -39.638
LeftArm  -23.0526 11.2928 -30.4484
LeftForeArm  35.9538 -40.6484 -7.30434
LeftHand  -0.244104 0.0205437 5.32207
RightShoulder  4.62481 8.41289 32.8687
RightArm  -18.7718 -15.061 30.5364
RightForeArm  3.39443 14.1543 4.35901
RightHand  -1.59051 3.46345 -20.896
LeftUpLeg  10.4741 10.3259 6.31599
LeftLeg  39.5708 7.25639 6.82405
LeftFoot  -13.9665 -0.304664 -14.6937
LeftToes  1.45487e-011 -6.19069e-011 1.65092e-011
42
root  -6.6984 37.996 1.04168 124.398 -84.2902 -128.953
RightUpLeg  -24.064 -16.5016 6.63425
RightLeg  31.5922 -3.81696 -2.78355
RightFoot  -3.51236 0.339515 -5.28655
RightToes  5.82063e-011 0 -3.6325e-017
Spine  21.6325 -3.57902 11.8517
Spine1  9.46083 -1.32541 0.125985
HEad  -0.502502 3.36575 -5.25319
LeftShoulder1  6.76745 -11.4624 -39.019
LeftArm  -22.8905 10.9913 -30.4113
LeftForeArm  41.7831 -47.3587 -9.14356
LeftHand  -0.244104 0.0205437 5.32207
RightShoulder  4.6223 8.52372 32.4897
RightArm  -19.9537 -11.7153 30.7653
RightForeArm  1.14416 14.2664 4.408
RightHand  -1.80728 4.33649 -21.6122
LeftUpLeg  2.94375 10.5781 7.29822
LeftLeg  51.9136 7.22573 10.2095
LeftFoot  -1.8449 0.785821 -9.73643
LeftToes  1.45487e-011 -6.19069e-011 1.65092e-011
43
root  -7.69428 37.897 0.906198 115.669 -83.8429 -120.045
RightUpLeg  -23.5402 -17.035 7.20956
RightLeg  33.8757 -3.92211 -3.09656
RightFoot  -5.99061 0.18128 -4.71821
RightToes  5.82063e-011 0 -3.6325e-017
Spine  22.3063 -3.77244 13.8294
Spine1  9.91731 -0.848562 -0.0148714
HEad  -0.885711 2.31635 -4.59177
LeftShoulder1  6.82771 -11.7479 -38.5887
LeftArm  -22.9241 10.212 -30.6946
LeftForeArm  46.7499 -52.718 -10.9909
LeftHand  -0.244104 0.0205437 5.32207
RightShoulder  4.60411 8.63497 31.9872
RightArm  -19.8959 -7.90914 31.0149
RightForeArm  0.176643 14.8547 4.56102
RightHand  -1.75612 4.25803 -21.1669
LeftUpLeg  -4.82405 10.8974 8.07065
LeftLeg  62.2484 5.63259 12.0068
LeftFoot  5.83269 0.492924 -3.25872
LeftToes  1.45487e-011 -6.19069e-011 1.65092e-011
44
root  -8.74597 37.956 0.76238 111.393 -83.7906 -116.001
RightUpLeg  -21.8373 -17.0788 6.90584
RightLeg  35.0121 -4.12669 -3.37617
RightFoot  -8.25256 0.0480764 -3.86642
RightToes  5.82063e-011 0 -3.6325e-017
Spine  23.0515 -3.73895 14.5681
Spine1  10.4466 -0.503555 -0.0237833
HEad  -1.51179 1.56495 -4.15419
LeftShoulder1  6.91396 -11.998 -38.4309
LeftArm  -22.866 9.15828 -30.9848
LeftForeArm  49.9175 -56.5021 -12.6462
LeftHand  -0.244104 0.0205437 5.32207
RightShoulder  4.66753 8.8864 31.7272
RightArm  -19.1575 -3.57825 30.9168
RightForeArm  0.532185 15.789 4.66985
RightHand  -1.58462 3.72056 -20.2592
LeftUpLeg  -11.4027 11.5774 8.09897
LeftLeg  68.7381 3.74729 11.3233
LeftFoot  6.2118 0.0476504 -0.530458
LeftToes  1.45487e-011 -6.19069e-011 1.65092e-011
45
root  -9.85327 38.1419 0.607061 108.548 -84.3112 -113.358
RightUpLeg  -19.5571 -17.0784 5.97369
RightLeg  35.1858 -4.36324 -3.57589
RightFoot  -10.0938 -0.0328262 -3.30257
RightToes  5.82063e-011 0 -3.6325e-017
Spine  23.58 -3.54616 14.2802
Spine1  10.7956 -0.359303 0.0761171
HEad  -2.07056 1.11219 -3.81524
LeftShoulder1  6.9883 -12.2178 -38.2873
LeftArm  -22.4737 8.15431 -31.292
LeftForeArm  51.7412 -58.5633 -13.7066
LeftHand  -0.244104 0.0205437 5.32207
RightShoulder  4.76348 9.11312 31.8114
RightArm  -18.0543 0.93453 30.6895
RightForeArm  0.811241 17.0204 4.74003
RightHand  -1.56079 3.66222 -20.0817
LeftUpLeg  -17.1081 12.4392 7.43463
LeftLeg  71.0334 2.55364 9.21167
LeftFoot  3.21636 0.189608 -1.67657
LeftToes  1.45487e-011 -6.19069e-011 1.65092e-011
46
root  -10.9816 38.3422 0.457159 105.037 -84.9791 -109.837
RightUpLeg  -17.2601 -17.2699 4.95419
RightLeg  34.9719 -4.56572 -3.70129
RightFoot  -11.7203 -0.0880225 -2.79062
RightToes  5.82063e-011 0 -3.6325e-017
Spine  23.8479 -3.2655 13.7457
Spine1  10.7933 -0.267971 0.156411
HEad  -2.51781 0.761556 -3.42553
LeftShoulder1  7.06286 -12.465 -38.0754
LeftArm  -21.8739 7.40963 -31.7027
LeftForeArm  52.5834 -59.1085 -13.9867
LeftHand  -0.244104 0.0205437 5.32207
RightShoulder  4.82566 9.18999 32.074
RightArm  -16.5986 5.18286 30.6559
RightForeArm  0.305909 18.6166 4.79644
RightHand  -1.72887 4.31428 -20.7383
LeftUpLeg  -22.2646 13.2839 6.36925
LeftLeg  69.6068 2.24379 7.52692
LeftFoot  0.955253 0.354397 -3.31253
LeftToes  1.45487e-011 -6.19069e-011 1.65092e-011
47
root  -12.1161 38.5616 0.32113 104.306 -85.6848 -109.112
RightUpLeg  -14.717 -17.3285 3.74765
RightLeg  34.2618 -4.63849 -3.66281
RightFoot  -13.2137 -0.119412 -1.8621
RightToes  5.82063e-011 0 -3.6325e-017
Spine  24.124 -2.83718 12.9535
Spine1  10.6339 -0.0431974 -0.0731199
HEad  -3.04534 0.433085 -3.04382
LeftShoulder1  7.19674 -12.7843 -38.032
LeftArm  -21.4224 7.01515 -32.0148
LeftForeArm  52.3647 -58.8001 -13.8115
LeftHand  -0.244104 0.0205437 5.32207
RightShoulder  4.86185 9.24172 32.204
RightArm  -15.0931 8.99518 31.0109
RightForeArm  -0.292975 20.4601 4.8229
RightHand  -1.90923 5.01335 -21.3599
LeftUpLeg  -26.3841 14.378 4.84591
LeftLeg  64.9541 2.78504 7.14688
LeftFoot  -0.296635 0.280088 -2.86423
LeftToes  1.45487e-011 -6.19069e-011 1.65092e-011
48
root  -13.2351 38.7492 0.219088 108.482 -86.2472 -113.344
RightUpLeg  -12.1808 -17.0833 2.5722
RightLeg  33.4364 -4.63364 -3.55243
RightFoot  -14.5196 -0.126961 -1.01264
RightToes  5.82063e-011 0 -3.6325e-017
Spine  24.4613 -2.38943 12.1852
Spine1  10.6028 0.30299 -0.616367
HEad  -3.72978 0.197191 -2.76885
LeftShoulder1  7.39691 -13.1282 -38.3102
LeftArm  -21.3417 7.00832 -31.9872
LeftForeArm  51.4097 -58.3444 -13.6093
LeftHand  -0.244104 0.0205437 5.32207
RightShoulder  4.88117 9.36523 31.9874
RightArm  -13.8666 12.5496 31.8882
RightForeArm  -0.532499 22.1206 4.88547
RightHand  -1.9597 5.167 -21.5969
LeftUpLeg  -28.9835 16.0057 3.22609
LeftLeg  57.2606 3.71949 6.74924
LeftFoot  -1.68683 0.213898 -2.43553
LeftToes  1.45487e-011 -6.19069e-011 1.65092e-011
